<svg width="39" height="35" viewBox="0 0 39 35" fill="none" xmlns="http://www.w3.org/2000/svg">
<path fill-rule="evenodd" clip-rule="evenodd" d="M2.9165 17.522C2.9165 9.83963 9.05609 2.91675 17.529 2.91675C25.8123 2.91675 32.0832 9.70819 32.0832 17.4782C32.0832 26.4896 24.7332 32.0834 17.4998 32.0834C15.1082 32.0834 12.454 31.4408 10.3248 30.1847C9.58109 29.732 8.954 29.396 8.15192 29.6589L5.20609 30.5353C4.46234 30.7689 3.7915 30.1847 4.01025 29.396L4.98734 26.1245C5.14775 25.6717 5.11859 25.1897 4.88525 24.81C3.63109 22.5024 2.9165 19.9757 2.9165 17.522ZM15.604 17.522C15.604 18.559 16.4353 19.3915 17.4707 19.4061C18.5061 19.4061 19.3373 18.559 19.3373 17.5366C19.3373 16.4996 18.5061 15.6671 17.4707 15.6671C16.4498 15.6525 15.604 16.4996 15.604 17.522ZM22.3269 17.5366C22.3269 18.559 23.1582 19.4061 24.1936 19.4061C25.229 19.4061 26.0603 18.559 26.0603 17.5366C26.0603 16.4996 25.229 15.6671 24.1936 15.6671C23.1582 15.6671 22.3269 16.4996 22.3269 17.5366ZM10.7478 19.4061C9.72692 19.4061 8.88109 18.559 8.88109 17.5366C8.88109 16.4996 9.71234 15.6671 10.7478 15.6671C11.7832 15.6671 12.6144 16.4996 12.6144 17.5366C12.6144 18.559 11.7832 19.3915 10.7478 19.4061Z" fill="url(#paint0_linear_317_1273)"/>
<path d="M32.0833 14.3138C29.2175 14.3138 26.8848 11.9811 26.8848 9.11528C26.8848 6.24945 29.2175 3.91675 32.0833 3.91675C34.9491 3.91675 37.2818 6.24945 37.2818 9.11528C37.2818 11.9811 34.9491 14.3138 32.0833 14.3138Z" fill="#F15642" stroke="#E3F4FD" stroke-width="2"/>
<defs>
<linearGradient id="paint0_linear_317_1273" x1="17.4998" y1="2.91675" x2="20.4314" y2="35.0828" gradientUnits="userSpaceOnUse">
<stop stop-color="#66BFE1"/>
<stop offset="1" stop-color="#3F8FAD"/>
</linearGradient>
</defs>
</svg>
