<svg width="35" height="38" viewBox="0 0 35 38" fill="none" xmlns="http://www.w3.org/2000/svg">
<path fill-rule="evenodd" clip-rule="evenodd" d="M2.91699 19.0011C2.91699 27.7396 9.45033 34.8345 17.5003 34.8345C25.5649 34.8345 32.0837 27.7396 32.0837 19.0011C32.0837 10.2596 25.5649 3.1678 17.5003 3.1678C9.45033 3.1678 2.91699 10.2596 2.91699 19.0011ZM16.217 25.002C16.217 25.7604 16.8003 26.3953 17.5003 26.3953C18.2003 26.3953 18.7691 25.7604 18.7691 25.002V18.0036C18.7691 17.2421 18.2003 16.6261 17.5003 16.6261C16.8003 16.6261 16.217 17.2421 16.217 18.0036V25.002ZM17.5149 11.5896C16.8003 11.5896 16.2316 12.2229 16.2316 12.9829C16.2316 13.7429 16.8003 14.3604 17.5003 14.3604C18.2149 14.3604 18.7837 13.7429 18.7837 12.9829C18.7837 12.2229 18.2149 11.5896 17.5149 11.5896Z" fill="#66BFE1"/>
</svg>
