<svg width="35" height="35" viewBox="0 0 35 35" fill="none" xmlns="http://www.w3.org/2000/svg">
<path fill-rule="evenodd" clip-rule="evenodd" d="M14.4306 16.3772C13.7925 16.3772 13.2881 16.873 13.2881 17.5001C13.2881 18.1126 13.7925 18.623 14.4306 18.623H23.3332V25.5938C23.3332 29.1667 20.3805 32.0834 16.7304 32.0834H9.50444C5.8692 32.0834 2.9165 29.1813 2.9165 25.6084V9.40633C2.9165 5.81883 5.88404 2.91675 9.51928 2.91675H16.7601C20.3805 2.91675 23.3332 5.81883 23.3332 9.39175V16.3772H14.4306ZM28.6272 12.4545L32.8855 16.6983C33.1043 16.917 33.221 17.1941 33.221 17.5004C33.221 17.792 33.1043 18.0837 32.8855 18.2879L28.6272 22.5316C28.4085 22.7504 28.1168 22.867 27.8397 22.867C27.548 22.867 27.2564 22.7504 27.0376 22.5316C26.6001 22.0941 26.6001 21.3795 27.0376 20.942L29.371 18.6233H23.3335V16.3775H29.371L27.0376 14.0587C26.6001 13.6212 26.6001 12.9066 27.0376 12.4691C27.4751 12.017 28.1897 12.017 28.6272 12.4545Z" fill="#66BFE1"/>
</svg>
