<svg width="35" height="35" viewBox="0 0 35 35" fill="none" xmlns="http://www.w3.org/2000/svg">
<path fill-rule="evenodd" clip-rule="evenodd" d="M29.7531 19.8042C30.2747 20.0813 30.6771 20.5188 30.9603 20.9563C31.5117 21.8605 31.467 22.9688 30.9305 23.9459L29.8872 25.6959C29.3358 26.6292 28.3075 27.2126 27.2493 27.2126C26.7277 27.2126 26.1464 27.0667 25.6695 26.7751C25.282 26.5272 24.8349 26.4397 24.358 26.4397C22.8826 26.4397 21.6456 27.6501 21.6009 29.0938C21.6009 30.7709 20.2297 32.0834 18.5158 32.0834H16.4889C14.7601 32.0834 13.389 30.7709 13.389 29.0938C13.3592 27.6501 12.1222 26.4397 10.6468 26.4397C10.1549 26.4397 9.70783 26.5272 9.33524 26.7751C8.85832 27.0667 8.26218 27.2126 7.75546 27.2126C6.68241 27.2126 5.65406 26.6292 5.10263 25.6959L4.07429 23.9459C3.52286 22.998 3.49305 21.8605 4.04448 20.9563C4.28294 20.5188 4.73004 20.0813 5.23676 19.8042C5.65406 19.6001 5.92233 19.2647 6.17569 18.8709C6.92086 17.6167 6.47376 15.9688 5.20696 15.2251C3.73151 14.3938 3.25459 12.5417 4.10409 11.098L5.10263 9.37716C5.96704 7.93341 7.81508 7.423 9.30543 8.26883C10.602 8.96883 12.2861 8.50216 13.0462 7.26258C13.2847 6.85425 13.4188 6.41675 13.389 5.97925C13.3592 5.4105 13.5231 4.87091 13.8063 4.43341C14.3577 3.52925 15.3563 2.94591 16.4442 2.91675H18.5456C19.6485 2.91675 20.647 3.52925 21.1985 4.43341C21.4667 4.87091 21.6456 5.4105 21.6009 5.97925C21.571 6.41675 21.7052 6.85425 21.9436 7.26258C22.7037 8.50216 24.3878 8.96883 25.6993 8.26883C27.1748 7.423 29.0377 7.93341 29.8872 9.37716L30.8858 11.098C31.7502 12.5417 31.2733 14.3938 29.7829 15.2251C28.5161 15.9688 28.069 17.6167 28.8291 18.8709C29.0675 19.2647 29.3358 19.6001 29.7531 19.8042ZM13.2847 17.5147C13.2847 19.8042 15.1774 21.6272 17.5173 21.6272C19.8571 21.6272 21.7052 19.8042 21.7052 17.5147C21.7052 15.2251 19.8571 13.3876 17.5173 13.3876C15.1774 13.3876 13.2847 15.2251 13.2847 17.5147Z" fill="#66BFE1"/>
</svg>
